<?xml version="1.0" encoding="UTF-8" standalone="no"?>
<!DOCTYPE svg PUBLIC "-//W3C//DTD SVG 20010904//EN"
              "http://www.w3.org/TR/2001/REC-SVG-20010904/DTD/svg10.dtd">

<svg xmlns="http://www.w3.org/2000/svg"
     width="2.22222in" height="2.22222in"
     viewBox="0 0 200 200">
  <path id="Selection"
        fill="#1ecd99"
        d="M 51.00,12.14
           C 51.00,12.14 101.00,12.14 101.00,12.14
             101.00,12.14 130.00,12.14 130.00,12.14
             149.84,12.00 168.40,11.19 180.90,30.00
             183.03,33.22 184.87,37.29 185.96,41.00
             187.27,45.45 187.99,54.25 188.00,59.00
             188.00,59.00 188.00,124.00 188.00,124.00
             188.00,135.29 188.88,151.60 184.94,162.00
             177.44,181.76 160.57,187.97 141.00,188.00
             141.00,188.00 57.00,188.00 57.00,188.00
             43.12,187.83 30.51,184.00 21.33,173.00
             9.48,158.80 12.00,136.47 12.00,119.00
             12.00,119.00 12.00,71.00 12.00,71.00
             12.00,48.83 11.46,27.51 35.00,16.32
             41.60,13.19 44.22,13.41 51.00,12.14 Z
           M 84.00,48.00
           C 84.00,48.00 72.00,48.00 72.00,48.00
             72.00,48.00 72.00,62.00 72.00,62.00
             72.00,62.00 53.00,62.00 53.00,62.00
             53.00,62.00 53.00,71.00 53.00,71.00
             53.00,71.00 72.00,71.00 72.00,71.00
             72.00,71.00 72.00,82.00 72.00,82.00
             72.00,82.00 47.00,82.00 47.00,82.00
             47.00,82.00 47.00,91.00 47.00,91.00
             47.00,91.00 66.00,91.00 66.00,91.00
             66.00,104.21 67.20,124.12 61.68,136.00
             57.98,143.94 53.74,146.38 49.00,153.00
             49.00,153.00 54.00,160.00 54.00,160.00
             66.67,154.01 73.94,136.41 74.00,123.00
             74.00,123.00 74.00,91.00 74.00,91.00
             74.00,91.00 82.00,91.00 82.00,91.00
             82.00,91.00 82.00,140.00 82.00,140.00
             81.99,147.39 82.16,149.71 74.00,150.00
             74.00,150.00 75.00,160.00 75.00,160.00
             78.94,160.00 85.49,160.77 88.27,157.57
             90.76,154.70 90.98,147.70 91.00,144.00
             91.00,144.00 91.00,91.00 91.00,91.00
             91.00,91.00 109.00,91.00 109.00,91.00
             109.00,91.00 109.00,82.00 109.00,82.00
             109.00,82.00 83.00,82.00 83.00,82.00
             83.00,82.00 83.00,71.00 83.00,71.00
             83.00,71.00 103.00,71.00 103.00,71.00
             102.99,69.01 103.24,65.19 101.98,63.60
             99.97,61.07 86.58,62.00 83.00,62.00
             83.00,62.00 84.00,48.00 84.00,48.00 Z
           M 133.00,142.00
           C 133.00,142.00 139.00,142.00 139.00,142.00
             141.82,141.96 144.32,141.91 147.00,140.85
             161.20,135.27 156.21,114.12 150.69,104.00
             148.82,100.57 143.18,93.32 143.14,90.00
             143.11,87.54 150.86,70.45 152.44,67.00
             153.72,64.20 156.98,60.24 155.26,57.32
             154.02,55.23 149.41,52.44 147.00,52.15
             147.00,52.15 136.00,53.00 136.00,53.00
             136.00,53.00 114.00,53.00 114.00,53.00
             114.00,53.00 114.00,160.00 114.00,160.00
             114.00,160.00 124.00,160.00 124.00,160.00
             124.00,160.00 124.00,64.00 124.00,64.00
             124.00,64.00 142.00,64.00 142.00,64.00
             142.00,64.00 134.60,82.00 134.60,82.00
             133.66,84.34 131.67,88.58 131.88,91.00
             132.11,93.61 134.54,96.77 135.97,99.00
             140.72,106.56 153.99,129.66 135.97,130.00
             135.97,130.00 131.00,130.00 131.00,130.00
             131.00,130.00 133.00,142.00 133.00,142.00 Z
           M 102.00,99.00
           C 102.00,99.00 93.00,101.00 93.00,101.00
             93.00,101.00 96.35,114.00 96.35,114.00
             96.35,114.00 100.00,131.00 100.00,131.00
             100.00,131.00 109.00,129.00 109.00,129.00
             108.79,119.22 105.09,108.28 102.00,99.00 Z
           M 63.00,101.00
           C 63.00,101.00 52.00,100.00 52.00,100.00
             52.00,100.00 48.57,121.00 48.57,121.00
             48.57,121.00 47.11,130.61 47.11,130.61
             47.11,130.61 55.00,135.00 55.00,135.00
             55.00,135.00 59.72,118.00 59.72,118.00
             59.72,118.00 63.00,101.00 63.00,101.00 Z" />
</svg>
